<svg width="400" height="400" viewBox="0 0 400 400" xmlns="http://www.w3.org/2000/svg">
  <!-- Gradient Definitions -->
  <defs>
    <radialGradient id="bodyGradient" cx="50%" cy="50%" r="50%">
      <stop offset="0%" style="stop-color:#8B4513; stop-opacity:1" />
      <stop offset="100%" style="stop-color:#A0522D; stop-opacity:1" />
    </radialGradient>
    <radialGradient id="brickGradient" cx="50%" cy="50%" r="50%">
      <stop offset="0%" style="stop-color:#8B4513; stop-opacity:1" />
      <stop offset="100%" style="stop-color:#5F4B32; stop-opacity:1" />
    </radialGradient>
    <radialGradient id="eyeGradient" cx="50%" cy="50%" r="50%">
      <stop offset="0%" style="stop-color:#FFFFFF; stop-opacity:1" />
      <stop offset="100%" style="stop-color:#C0C0C0; stop-opacity:1" />
    </radialGradient>
    <linearGradient id="mouthGradient" x1="0%" y1="0%" x2="0%" y2="100%">
      <stop offset="0%" style="stop-color:#8B4513; stop-opacity:1" />
      <stop offset="100%" style="stop-color:#5A2F0A; stop-opacity:1" />
    </linearGradient>
  </defs>
  
  <!-- Corps principal -->
  <circle cx="200" cy="200" r="100" fill="url(#bodyGradient)" stroke="#000000" stroke-width="3"/>
  
  <!-- Yeux -->
  <ellipse cx="170" cy="170" rx="15" ry="25" fill="url(#eyeGradient)" stroke="#000000" stroke-width="2"/>
  <ellipse cx="230" cy="170" rx="15" ry="25" fill="url(#eyeGradient)" stroke="#000000" stroke-width="2"/>
  <circle cx="170" cy="170" r="10" fill="#000000"/>
  <circle cx="230" cy="170" r="10" fill="#000000"/>
  
  <!-- Sourcils -->
  <path d="M 150 150 Q 170 130, 190 150" stroke="#000000" stroke-width="4" fill="none"/>
  <path d="M 210 150 Q 230 130, 250 150" stroke="#000000" stroke-width="4" fill="none"/>
  
  <!-- Bouche -->
  <path d="M 160 230 Q 200 260, 240 230" stroke="url(#mouthGradient)" stroke-width="4" fill="none"/>
  
  <!-- Briques de terre sur la tête -->
  <rect x="185" y="55" width="30" height="20" fill="url(#brickGradient)" stroke="#000000" stroke-width="2"/>
  <rect x="210" y="70" width="20" height="15" fill="url(#brickGradient)" stroke="#000000" stroke-width="2"/>
  <rect x="170" y="70" width="20" height="15" fill="url(#brickGradient)" stroke="#000000" stroke-width="2"/>
  
  <!-- Pattes -->
  <ellipse cx="150" cy="300" rx="20" ry="30" fill="url(#bodyGradient)" stroke="#000000" stroke-width="2"/>
  <ellipse cx="250" cy="300" rx="20" ry="30" fill="url(#bodyGradient)" stroke="#000000" stroke-width="2"/>
</svg>
